<svg width="402" height="874" viewBox="0 0 402 874" fill="none" xmlns="http://www.w3.org/2000/svg">
<g clip-path="url(#clip0_3_440)">
<rect width="402" height="874" fill="url(#paint0_linear_3_440)"/>
<g opacity="0.6">
<g filter="url(#filter0_f_3_440)">
<circle cx="259.741" cy="-242.643" r="201.673" transform="rotate(117.847 259.741 -242.643)" fill="#06A37F"/>
</g>
<circle opacity="0.6" cx="479.489" cy="-87.6711" r="214.051" transform="rotate(-122.153 479.489 -87.6711)" fill="url(#paint1_linear_3_440)"/>
<circle opacity="0.6" cx="419.366" cy="-77.8953" r="277.855" transform="rotate(79.9304 419.366 -77.8953)" fill="url(#paint2_linear_3_440)"/>
<circle opacity="0.6" cx="261.627" cy="-1.46348" r="291.251" transform="rotate(-92.1533 261.627 -1.46348)" fill="url(#paint3_linear_3_440)"/>
<g opacity="0.8" filter="url(#filter1_f_3_440)">
<circle cx="225.975" cy="49.2437" r="171.202" transform="rotate(117.847 225.975 49.2437)" fill="url(#paint4_linear_3_440)"/>
</g>
</g>
<g opacity="0.6">
<g filter="url(#filter2_f_3_440)">
<circle cx="269.775" cy="698.398" r="201.673" transform="rotate(165.963 269.775 698.398)" fill="#06A37F"/>
</g>
<circle opacity="0.6" cx="301.104" cy="965.464" r="214.051" transform="rotate(-74.0366 301.104 965.464)" fill="url(#paint5_linear_3_440)"/>
<circle opacity="0.6" cx="253.687" cy="927.228" r="277.855" transform="rotate(128.047 253.687 927.228)" fill="url(#paint6_linear_3_440)"/>
<circle opacity="0.6" cx="91.4737" cy="860.817" r="291.251" transform="rotate(-44.0366 91.4737 860.817)" fill="url(#paint7_linear_3_440)"/>
<g opacity="0.8" filter="url(#filter3_f_3_440)">
<circle cx="29.9204" cy="868.127" r="171.202" transform="rotate(165.963 29.9204 868.127)" fill="url(#paint8_linear_3_440)"/>
</g>
</g>
<g clip-path="url(#clip1_3_440)">
<path d="M167.07 433.343H155.793C150.616 433.343 148.617 435.951 148.617 442.901V449.13C148.617 456.084 150.616 458.688 155.793 458.688H167.07C167.455 458.688 167.659 458.435 167.659 457.892V454.402C167.659 453.871 167.455 453.622 167.066 453.622H155.813C153.134 453.622 152.388 452.522 152.388 448.794V448.192H166.913C167.298 448.192 167.479 447.935 167.479 447.381V444.476C167.479 443.926 167.298 443.665 166.913 443.665H152.388V443.324C152.388 439.537 153.134 438.417 155.813 438.417H167.066C167.451 438.417 167.659 438.164 167.659 437.621V434.143C167.659 433.6 167.455 433.347 167.07 433.347V433.343Z" fill="white"/>
<path d="M184.592 433.343H172.565C172.051 433.343 171.795 433.703 171.795 434.428V457.599C171.795 458.324 172.051 458.684 172.565 458.684H184.592C190.17 458.684 192.456 455.534 192.456 448.473V443.55C192.456 436.489 190.17 433.339 184.592 433.339V433.343ZM188.5 447.998C188.5 452.249 187.503 453.618 184.478 453.618H176.077C175.845 453.618 175.743 453.476 175.743 453.151V438.916C175.743 438.555 175.845 438.413 176.077 438.413H184.478C187.503 438.413 188.5 439.782 188.5 444.033V447.998Z" fill="white"/>
<path d="M211.408 433.343H197.711C197.201 433.343 196.945 433.703 196.945 434.428V457.888C196.945 458.431 197.15 458.684 197.531 458.684H200.15C200.535 458.684 200.716 458.431 200.716 457.884V450.899H211.36C215.292 450.899 216.887 448.315 216.887 443.407V440.799C216.887 435.912 215.304 433.339 211.404 433.339L211.408 433.343ZM212.939 442.988C212.939 445.149 212.299 446.194 210.551 446.194H200.72V438.84C200.72 438.516 200.822 438.409 201.054 438.409H210.551C212.295 438.409 212.939 439.454 212.939 441.615V442.984V442.988Z" fill="white"/>
<path d="M236.958 450.143C239.657 449.459 240.788 447.044 240.788 442.936V440.799C240.788 435.912 239.205 433.339 235.305 433.339H221.608C221.098 433.339 220.842 433.699 220.842 434.424V457.884C220.842 458.427 221.047 458.68 221.428 458.68H224.047C224.432 458.68 224.613 458.427 224.613 457.888V450.717H232.917L236.978 458.213C237.131 458.537 237.261 458.68 237.697 458.68H241.012C241.475 458.68 241.499 458.031 241.346 457.778L236.95 450.135L236.958 450.143ZM236.833 442.972C236.833 445.145 236.192 446.194 234.444 446.194H224.613V438.662C224.613 438.373 224.715 438.227 224.947 438.227H234.444C236.188 438.227 236.833 439.276 236.833 441.448V442.968V442.972Z" fill="white"/>
<path d="M263.016 433.343H251.739C246.562 433.343 244.563 435.951 244.563 442.901V449.13C244.563 456.084 246.562 458.688 251.739 458.688H263.016C263.4 458.688 263.605 458.435 263.605 457.892V454.402C263.605 453.871 263.401 453.622 263.012 453.622H251.758C249.08 453.622 248.333 452.522 248.333 448.794V448.192H262.858C263.243 448.192 263.424 447.935 263.424 447.381V444.476C263.424 443.926 263.243 443.665 262.858 443.665H248.333V443.324C248.333 439.537 249.08 438.417 251.758 438.417H263.012C263.397 438.417 263.605 438.164 263.605 437.621V434.143C263.605 433.6 263.4 433.347 263.016 433.347V433.343Z" fill="white"/>
<path d="M280.538 433.343H268.511C267.996 433.343 267.741 433.703 267.741 434.428V457.599C267.741 458.324 267.996 458.684 268.511 458.684H280.538C286.115 458.684 288.401 455.534 288.401 448.473V443.55C288.401 436.489 286.115 433.339 280.538 433.339V433.343ZM284.446 447.998C284.446 452.249 283.448 453.618 280.424 453.618H272.022C271.79 453.618 271.688 453.476 271.688 453.151V438.916C271.688 438.555 271.79 438.413 272.022 438.413H280.424C283.448 438.413 284.446 439.782 284.446 444.033V447.998Z" fill="white"/>
<path d="M321.411 433.343H301.391C301.006 433.343 300.801 433.6 300.801 434.15V437.748C300.801 438.298 301.006 438.591 301.391 438.591H309.427V457.892C309.427 458.435 309.608 458.688 309.997 458.688H312.813C313.202 458.688 313.382 458.435 313.382 457.892V438.591H321.419C321.804 438.591 322.008 438.298 322.008 437.748V434.15C322.008 433.6 321.804 433.343 321.419 433.343H321.411Z" fill="white"/>
<path d="M296.006 437.53H293.951C293.368 437.53 292.895 438.007 292.895 438.595V457.623C292.895 458.211 293.368 458.688 293.951 458.688H296.006C296.589 458.688 297.062 458.211 297.062 457.623V438.595C297.062 438.007 296.589 437.53 296.006 437.53Z" fill="white"/>
<path d="M294.976 435.342C296.126 435.342 297.058 434.403 297.058 433.244C297.058 432.086 296.126 431.147 294.976 431.147C293.827 431.147 292.895 432.086 292.895 433.244C292.895 434.403 293.827 435.342 294.976 435.342Z" fill="white"/>
<path d="M142.199 432.936H139.434C137.91 432.936 137.395 433.41 136.696 435.718L131.323 453.286C131.244 453.543 131.142 453.614 130.961 453.614H130.651C130.47 453.614 130.368 453.543 130.29 453.286L124.917 435.718C124.217 433.41 123.703 432.936 122.151 432.936H119.335C117.501 432.936 117.037 433.961 117.037 436.743V457.758C117.037 458.304 117.245 458.557 117.634 458.557H120.282C120.67 458.557 120.851 458.304 120.851 457.758V438.789C120.851 438.536 120.902 438.425 121.059 438.425H121.291C121.472 438.425 121.578 438.496 121.629 438.714L126.869 454.991C127.725 457.607 128.452 458.553 130.192 458.553H131.437C133.177 458.553 133.903 457.607 134.76 454.991L139.999 438.714C140.05 438.496 140.157 438.425 140.337 438.425H140.439C140.596 438.425 140.648 438.536 140.648 438.789V457.758C140.648 458.304 140.828 458.557 141.217 458.557H143.864C144.253 458.557 144.461 458.304 144.461 457.758V436.743C144.461 433.961 143.998 432.936 142.187 432.936H142.199Z" fill="white"/>
<path d="M120.58 447.781C120.384 448.093 120.451 448.046 120.07 447.978C119.661 447.903 119.363 447.587 119.323 447.195L118.675 440.415C118.675 440.415 119.622 457.497 119.48 458.098C119.402 458.154 119.339 458.134 119.186 458.181C118.946 458.256 118.809 458.403 118.754 458.446C118.593 458.581 118.176 458.66 117.045 458.415L110.372 443.031L108.392 451.192C108.298 451.584 107.94 451.857 107.504 451.873H107.493H107.481C107.041 451.869 106.676 451.58 106.585 451.172L105.497 446.107L105.419 446.407C105.317 446.799 104.947 447.072 104.523 447.072H82.0912V445.315H103.804L104.692 441.915C104.794 441.52 105.187 441.243 105.611 441.25C106.039 441.258 106.405 441.547 106.495 441.951L107.552 446.866L109.779 437.681C109.881 437.265 110.277 436.98 110.725 437C111.177 437.02 111.542 437.348 111.597 437.776L117.049 452.174L118.247 434.392C118.33 433.957 118.73 433.652 119.19 433.668C119.653 433.684 120.034 433.296 120.077 433.735L120.423 444.373" fill="white"/>
<path d="M146.084 428.357C145.345 426.247 144.976 425.194 144.352 423.774C143.322 421.427 142.344 419.765 141.512 418.352C140.899 417.311 140.384 416.515 139.795 415.704C139.493 415.284 139.186 414.889 138.884 414.517L138.648 414.228L138.401 413.951C138.236 413.769 138.075 413.579 137.902 413.409L137.643 413.147L137.513 413.017L137.45 412.949L137.384 412.886L136.845 412.387C136.661 412.229 136.476 412.071 136.292 411.913C136.244 411.873 136.201 411.833 136.154 411.794L136.013 411.683L135.726 411.461C134.96 410.876 134.155 410.353 133.33 409.902C131.672 408.996 129.917 408.398 128.165 408.074C127.285 407.919 126.409 407.84 125.541 407.832C124.673 407.828 123.817 407.88 122.984 408.026C122.151 408.169 121.338 408.378 120.553 408.655C119.767 408.932 119.017 409.289 118.302 409.696C116.868 410.519 115.584 411.588 114.52 412.866C113.455 414.141 112.603 415.621 112.018 417.24C111.432 418.858 111.091 420.611 111.047 422.416C111.004 424.221 111.24 426.069 111.762 427.866L113.762 434.732L108.07 430.403C107.226 429.761 106.338 429.184 105.415 428.705C104.492 428.23 103.537 427.834 102.567 427.537C101.597 427.244 100.615 427.031 99.6331 426.924C98.6511 426.817 97.677 426.801 96.7186 426.884C95.7602 426.967 94.8215 427.142 93.918 427.403C93.0146 427.668 92.1466 428.032 91.3178 428.467C91.1096 428.57 90.9093 428.697 90.7051 428.812C90.6029 428.867 90.5048 428.934 90.4066 428.998L90.112 429.188C89.9588 429.294 89.8056 429.405 89.6524 429.516C89.5424 429.595 89.3657 429.726 89.2596 429.813L88.9847 430.035C88.2659 430.636 87.6021 431.305 87.009 432.045C86.4159 432.785 85.8935 433.592 85.4535 434.455C85.0097 435.318 84.6444 436.236 84.3695 437.194C83.8156 439.113 83.6114 441.199 83.7921 443.316C83.8824 444.373 84.0631 445.438 84.3459 446.49C84.6248 447.543 85.0018 448.58 85.4614 449.585C85.6931 450.088 85.9445 450.583 86.2234 451.069C86.353 451.315 86.5101 451.548 86.6515 451.79L86.7615 451.968L86.8165 452.059L86.8794 452.15L87.1268 452.522L87.3743 452.894C87.4567 453.017 87.5432 453.135 87.6296 453.258L87.8849 453.622L88.0145 453.804C88.0577 453.863 88.1048 453.923 88.148 453.982L88.6822 454.691L89.2361 455.379C89.9863 456.286 90.7797 457.152 91.6163 457.971C92.453 458.787 93.3328 459.555 94.2519 460.267C96.4162 461.953 98.2858 462.942 100.144 463.916C100.752 464.236 101.314 464.513 101.86 464.767C103.109 465.352 104.59 466.065 106.499 466.698C107.387 466.991 108.585 467.347 110.05 467.644C111.456 467.941 112.626 468.087 113.455 468.17C114.582 468.281 116.142 468.384 118.004 468.34C118.844 468.321 119.767 468.273 121.024 468.15C124.492 467.818 127.972 467.177 130.129 466.746C130.482 466.674 130.836 466.603 131.189 466.532C136.677 465.408 142.066 464.169 147.356 462.824C140.616 466.314 134.736 468.127 130.545 469.132C127.167 469.939 124.327 470.327 123.322 470.458C121.213 470.731 118.114 471.119 114.131 470.988C110.592 470.873 108.263 470.41 106.927 470.094C106.413 469.971 105.988 469.86 105.694 469.777C105.694 469.777 100.694 468.503 95.7759 465.685C94.8018 465.127 93.7531 464.521 92.4215 463.575C90.2377 462.028 88.1913 460.176 86.3687 458.114L85.6931 457.33L85.0411 456.527C84.9861 456.46 84.9311 456.392 84.8801 456.325L84.723 456.119L84.4087 455.708C84.3066 455.569 84.1966 455.435 84.0984 455.296L83.7999 454.877L83.5014 454.457L83.4268 454.35L83.3521 454.239L83.2029 454.014C83.0065 453.709 82.7983 453.412 82.6216 453.1C82.2445 452.482 81.8988 451.845 81.5728 451.2C80.2806 448.608 79.4636 445.81 79.1533 443.039C78.8469 440.273 79.0394 437.534 79.7071 435.017C80.041 433.759 80.4848 432.552 81.0347 431.416C81.5885 430.284 82.2445 429.219 82.9947 428.246C83.7449 427.272 84.5855 426.382 85.5046 425.598L85.8542 425.309C85.972 425.214 86.0859 425.115 86.2077 425.028C86.4512 424.85 86.6908 424.668 86.9383 424.494L87.3153 424.245C87.441 424.161 87.5667 424.078 87.6963 423.999C87.9556 423.845 88.2109 423.683 88.478 423.544C89.5385 422.962 90.6619 422.483 91.8363 422.127C93.0107 421.775 94.2323 421.538 95.4853 421.419C96.7382 421.304 98.0226 421.324 99.3149 421.462C99.4877 421.478 99.6566 421.506 99.8295 421.526C99.9434 421.538 100.057 421.549 100.171 421.569L100.772 421.672C100.855 421.688 100.933 421.7 101.016 421.716L101.259 421.767L101.746 421.87L102.233 421.993C102.559 422.068 102.881 422.171 103.203 422.266C104.15 422.555 105.089 422.919 106.012 423.346C105.977 422.681 105.969 422.02 105.992 421.363C106.032 420.168 106.177 418.997 106.405 417.861C106.632 416.725 106.951 415.629 107.351 414.584C108.156 412.494 109.284 410.595 110.698 409C112.108 407.397 113.773 406.079 115.627 405.094C116.558 404.603 117.524 404.183 118.538 403.859C119.551 403.542 120.6 403.309 121.668 403.166C122.737 403.02 123.836 402.984 124.94 403.032C126.048 403.083 127.163 403.226 128.275 403.467C129.386 403.712 130.498 404.053 131.59 404.484C132.136 404.694 132.674 404.943 133.212 405.2L134.01 405.608L134.791 406.055C135.828 406.677 136.826 407.385 137.776 408.169L138.13 408.465L138.307 408.616C138.366 408.667 138.421 408.719 138.479 408.774C138.707 408.984 138.935 409.194 139.159 409.407L139.815 410.072L139.897 410.155C140.341 410.698 140.978 411.517 141.681 412.562C142.219 413.361 144.143 416.29 145.805 420.995C146.673 423.449 147.093 425.345 147.482 427.07C148.405 431.135 148.857 434.879 149.045 438.152C148.539 436.335 148.032 434.519 147.525 432.702C147.191 431.618 146.716 430.126 146.099 428.364L146.084 428.357Z" fill="white"/>
</g>
</g>
<defs>
<filter id="filter0_f_3_440" x="-91.9726" y="-594.357" width="703.428" height="703.428" filterUnits="userSpaceOnUse" color-interpolation-filters="sRGB">
<feFlood flood-opacity="0" result="BackgroundImageFix"/>
<feBlend mode="normal" in="SourceGraphic" in2="BackgroundImageFix" result="shape"/>
<feGaussianBlur stdDeviation="75" result="effect1_foregroundBlur_3_440"/>
</filter>
<filter id="filter1_f_3_440" x="-95.2613" y="-271.993" width="642.473" height="642.473" filterUnits="userSpaceOnUse" color-interpolation-filters="sRGB">
<feFlood flood-opacity="0" result="BackgroundImageFix"/>
<feBlend mode="normal" in="SourceGraphic" in2="BackgroundImageFix" result="shape"/>
<feGaussianBlur stdDeviation="75" result="effect1_foregroundBlur_3_440"/>
</filter>
<filter id="filter2_f_3_440" x="-81.9465" y="346.677" width="703.442" height="703.442" filterUnits="userSpaceOnUse" color-interpolation-filters="sRGB">
<feFlood flood-opacity="0" result="BackgroundImageFix"/>
<feBlend mode="normal" in="SourceGraphic" in2="BackgroundImageFix" result="shape"/>
<feGaussianBlur stdDeviation="75" result="effect1_foregroundBlur_3_440"/>
</filter>
<filter id="filter3_f_3_440" x="-291.322" y="546.884" width="642.485" height="642.485" filterUnits="userSpaceOnUse" color-interpolation-filters="sRGB">
<feFlood flood-opacity="0" result="BackgroundImageFix"/>
<feBlend mode="normal" in="SourceGraphic" in2="BackgroundImageFix" result="shape"/>
<feGaussianBlur stdDeviation="75" result="effect1_foregroundBlur_3_440"/>
</filter>
<linearGradient id="paint0_linear_3_440" x1="402" y1="233.889" x2="3.49695e-05" y2="640.111" gradientUnits="userSpaceOnUse">
<stop stop-color="#04C094"/>
<stop offset="1" stop-color="#0C4B41"/>
</linearGradient>
<linearGradient id="paint1_linear_3_440" x1="479.489" y1="-301.722" x2="479.489" y2="126.38" gradientUnits="userSpaceOnUse">
<stop stop-color="#079777"/>
<stop offset="1" stop-color="white" stop-opacity="0"/>
</linearGradient>
<linearGradient id="paint2_linear_3_440" x1="419.366" y1="-355.75" x2="419.366" y2="199.959" gradientUnits="userSpaceOnUse">
<stop stop-color="#079777"/>
<stop offset="1" stop-color="white" stop-opacity="0"/>
</linearGradient>
<linearGradient id="paint3_linear_3_440" x1="261.627" y1="-292.715" x2="261.627" y2="289.788" gradientUnits="userSpaceOnUse">
<stop stop-color="#079777"/>
<stop offset="1" stop-color="white" stop-opacity="0"/>
</linearGradient>
<linearGradient id="paint4_linear_3_440" x1="225.975" y1="-121.958" x2="204.027" y2="122.194" gradientUnits="userSpaceOnUse">
<stop stop-color="#069D7B"/>
</linearGradient>
<linearGradient id="paint5_linear_3_440" x1="301.104" y1="751.412" x2="301.104" y2="1179.51" gradientUnits="userSpaceOnUse">
<stop stop-color="#079777"/>
<stop offset="1" stop-color="white" stop-opacity="0"/>
</linearGradient>
<linearGradient id="paint6_linear_3_440" x1="253.687" y1="649.373" x2="253.687" y2="1205.08" gradientUnits="userSpaceOnUse">
<stop stop-color="#079777"/>
<stop offset="1" stop-color="white" stop-opacity="0"/>
</linearGradient>
<linearGradient id="paint7_linear_3_440" x1="91.4737" y1="569.566" x2="91.4737" y2="1152.07" gradientUnits="userSpaceOnUse">
<stop stop-color="#079777"/>
<stop offset="1" stop-color="white" stop-opacity="0"/>
</linearGradient>
<linearGradient id="paint8_linear_3_440" x1="29.9204" y1="696.925" x2="7.97205" y2="941.078" gradientUnits="userSpaceOnUse">
<stop stop-color="#069D7B"/>
</linearGradient>
<clipPath id="clip0_3_440">
<rect width="402" height="874" fill="white"/>
</clipPath>
<clipPath id="clip1_3_440">
<rect width="243" height="68" fill="white" transform="translate(79 403)"/>
</clipPath>
</defs>
</svg>
