<?xml version="1.0" encoding="UTF-8"?><svg id="Layer_1" xmlns="http://www.w3.org/2000/svg" xmlns:xlink="http://www.w3.org/1999/xlink" viewBox="0 0 474.48 474.48"><defs><style>.cls-1{fill:url(#linear-gradient-2);}.cls-2{fill:#353535;}.cls-3{fill:url(#linear-gradient);}</style><linearGradient id="linear-gradient" x1="64.93" y1="215.11" x2="409.54" y2="215.11" gradientUnits="userSpaceOnUse"><stop offset="0" stop-color="#f7ef8a"/><stop offset=".18" stop-color="#e4ce69"/><stop offset=".4" stop-color="#d2ac47"/><stop offset=".73" stop-color="#edc967"/><stop offset=".78" stop-color="#deb957"/><stop offset=".92" stop-color="#bb9432"/><stop offset="1" stop-color="#ae8625"/></linearGradient><linearGradient id="linear-gradient-2" x1="107.44" y1="364.22" x2="366.66" y2="364.22" xlink:href="#linear-gradient"/></defs><circle class="cls-2" cx="237.24" cy="237.24" r="237.24"/><path class="cls-3" d="M172.84,247.3c17.43-32.77,34.15-63.68,50.07-94.99,1.56-3.07-.55-9.57-3.07-12.87-9.42-12.34-10.33-24.25,1.28-34.97,10.23-9.45,22.3-9.42,32.24.14,11.23,10.81,10.01,23.03.74,35.23-2.33,3.07-4.67,8.91-3.31,11.57,16.26,31.73,33.22,63.09,50.67,95.81,21.41-11.36,41.15-21.31,60.18-32.46,3.02-1.77,4.48-9.13,3.92-13.56-1.73-13.76,2.08-24.07,15.88-28.09,12.16-3.54,21.81,1.76,26.24,13.17,5.15,13.25-.83,22.23-12.81,29.55-5.72,3.5-10.83,10.97-12.51,17.59-7.28,28.67-13.63,57.59-19.36,86.61-1.95,9.88-6.18,12.83-15.9,12.78-72.84-.35-145.69-.41-218.53-.02-11.43.06-15.87-4.18-18.01-15.13-5.69-29.02-12.07-57.94-19.33-86.6-1.5-5.91-7.01-12.14-12.38-15.45-12.03-7.41-17.11-16.87-11.85-29.99,4.7-11.75,14.78-16.11,26.51-12.31,12.39,4.02,18.81,13.95,14.68,26.69-3.05,9.41-.33,13.23,7.53,17.17,18.25,9.14,36.13,19,57.12,30.14Z"/><path class="cls-1" d="M237.13,376.96c-36.41,0-72.81.03-109.22-.02-9.23-.01-20.3.53-20.47-12.13-.17-13.51,11.08-13.43,21.13-13.43,72.25.03,144.49,0,216.74,0,1.14,0,2.28.05,3.41,0,9.49-.33,18.01,1.99,17.93,13.2-.08,11.84-9.79,12.28-18.6,12.33-27.3.13-54.61.11-81.92.15-9.67.01-19.34,0-29.01,0v-.1Z"/></svg>