<svg width="12" height="12" viewBox="0 0 12 12" fill="none" xmlns="http://www.w3.org/2000/svg">
<circle cx="6" cy="6" r="6" fill="#FFA10B"/>
<g clip-path="url(#clip0_360_1055)">
<path d="M6 10C4.93573 10 3.93239 9.58278 3.17481 8.82519C2.41722 8.06761 2 7.06427 2 6C2 4.93573 2.41722 3.93239 3.17481 3.17481C3.93239 2.41722 4.93573 2 6 2C7.06427 2 8.06761 2.41722 8.82519 3.17481C9.58278 3.93239 10 4.93573 10 6C10 7.06427 9.58278 8.06761 8.82519 8.82519C8.06761 9.58278 7.06427 10 6 10Z" fill="#FCFAF2"/>
<path d="M7.40625 5.76562C7.01855 5.76562 6.70312 5.4502 6.70312 5.0625C6.70312 4.6748 7.01855 4.35938 7.40625 4.35938C7.79395 4.35938 8.10938 4.6748 8.10938 5.0625C8.10938 5.4502 7.79395 5.76562 7.40625 5.76562Z" fill="#FFA10B"/>
<path d="M4.59375 5.76562C4.20605 5.76562 3.89062 5.4502 3.89062 5.0625C3.89062 4.6748 4.20605 4.35938 4.59375 4.35938C4.98145 4.35938 5.29688 4.6748 5.29688 5.0625C5.29688 5.4502 4.98145 5.76562 4.59375 5.76562Z" fill="#FFA10B"/>
<path d="M7.64062 7.64062H4.35938V8.10938H7.64062V7.64062Z" fill="#FFA10B"/>
</g>
<defs>
<clipPath id="clip0_360_1055">
<rect width="8" height="8" fill="white" transform="translate(2 2)"/>
</clipPath>
</defs>
</svg>
