<svg width="12" height="12" viewBox="0 0 12 12" fill="none" xmlns="http://www.w3.org/2000/svg">
<circle cx="6" cy="6" r="6" fill="#6FB62E"/>
<g clip-path="url(#clip0_360_1054)">
<mask id="mask0_360_1054" style="mask-type:luminance" maskUnits="userSpaceOnUse" x="2" y="2" width="8" height="8">
<path d="M2 2H10V10H2V2Z" fill="white"/>
</mask>
<g mask="url(#mask0_360_1054)">
<path d="M6 2C3.79433 2 2 3.79433 2 6C2 8.20567 3.79433 10 6 10C8.20567 10 10 8.20567 10 6C10 3.79433 8.20567 2 6 2ZM4.5 4.33333C4.77567 4.33333 5 4.55767 5 4.83333C5 5.109 4.77567 5.33333 4.5 5.33333C4.22433 5.33333 4 5.109 4 4.83333C4 4.55767 4.22433 4.33333 4.5 4.33333ZM7.96433 7.25667C7.532 7.93067 6.79767 8.33333 6 8.33333C5.20233 8.33333 4.468 7.93067 4.03567 7.25667C3.986 7.17933 4.00833 7.076 4.086 7.02633C4.163 6.97633 4.26667 6.999 4.31633 7.07667C4.68733 7.65467 5.31667 8 6 8C6.68333 8 7.31267 7.65467 7.68367 7.07667C7.73333 6.99933 7.83633 6.97633 7.914 7.02633C7.99133 7.076 8.014 7.17933 7.96433 7.25667ZM7.5 5.33333C7.22433 5.33333 7 5.109 7 4.83333C7 4.55767 7.22433 4.33333 7.5 4.33333C7.77567 4.33333 8 4.55767 8 4.83333C8 5.109 7.77567 5.33333 7.5 5.33333Z" fill="#FCFAF2"/>
</g>
</g>
<defs>
<clipPath id="clip0_360_1054">
<rect width="8" height="8" fill="white" transform="translate(2 2)"/>
</clipPath>
</defs>
</svg>
