<svg width="12" height="12" viewBox="0 0 12 12" fill="none" xmlns="http://www.w3.org/2000/svg">
<circle cx="6" cy="6" r="6" fill="#F44336"/>
<g clip-path="url(#clip0_360_1063)">
<path d="M6 2C3.79063 2 2 3.79063 2 6C2 8.20937 3.79063 10 6 10C8.20937 10 10 8.20937 10 6C10 3.79063 8.20937 2 6 2ZM7.35781 4.14844C7.69844 4.14844 7.975 4.425 7.975 4.76562C7.975 5.10625 7.69844 5.38281 7.35781 5.38281C7.01719 5.38281 6.74062 5.10625 6.74062 4.76562C6.74062 4.425 7.01719 4.14844 7.35781 4.14844ZM4.64219 4.14844C4.98281 4.14844 5.25938 4.425 5.25938 4.76562C5.25938 5.10625 4.98281 5.38281 4.64219 5.38281C4.30156 5.38281 4.025 5.10625 4.025 4.76562C4.025 4.425 4.30156 4.14844 4.64219 4.14844ZM7.76094 8.30469C6.58594 7.70312 5.4125 7.70312 4.2375 8.30469C4.14687 8.35156 4.03437 8.31406 3.9875 8.22344C3.96875 8.1875 3.9625 8.14687 3.97031 8.10781C4.17188 6.9875 5.24219 6.24219 6.3625 6.44375C7.21094 6.59531 7.875 7.25938 8.02656 8.10781C8.04375 8.20937 7.97656 8.30469 7.875 8.32188C7.8375 8.32969 7.79688 8.32344 7.76094 8.30469Z" fill="#FEFDF9"/>
</g>
<defs>
<clipPath id="clip0_360_1063">
<rect width="8" height="8" fill="white" transform="translate(2 2)"/>
</clipPath>
</defs>
</svg>
